<svg width="40" height="40" viewBox="0 0 40 40" fill="none" xmlns="http://www.w3.org/2000/svg"><circle cx="20" cy="20" r="19.5" stroke="#FF5A26"/><path fill-rule="evenodd" clip-rule="evenodd" d="M29.438 19.088c.242-.06.487.087.548.33.06.24-.086.486-.328.547-.116.03-.238.063-.362.098-.615.17-1.3.36-1.66.112-.537-.37-.61-.44-.682-.508-.08-.077-.156-.15-.896-.65l-.2.242c1.285 2.33.697 5.25-1.44 6.914-.953.744-2.092 1.137-3.294 1.137-.908 0-1.814-.233-2.62-.677l-.057-.03c-.63-.358-1.343-.546-2.06-.546-.962 0-1.893.34-2.62.96l-.77.653c-.25.213-.568.33-.895.33-.37 0-.717-.144-.978-.405l-.72-.72c-.26-.262-.404-.61-.404-.98s.143-.717.405-.978l.748-.75 4.436-4.443c.17-.17.467-.17.637 0l.958.96c.176.177.484.176.66 0 .088-.09.136-.206.136-.33 0-.125-.047-.242-.135-.33l-.96-.96c-.083-.085-.13-.2-.13-.32s.047-.235.132-.32l.296-.296c1.044-1.047 2.49-1.646 3.963-1.646.8 0 1.59.175 2.303.51l.316-.264c-1.673-2.488-1.923-5.732-.55-8.478.113-.224.385-.314.608-.202.222.112.313.384.2.607-1.218 2.434-1.006 5.305.458 7.52.228-.124.485-.193.747-.193.42 0 .813.164 1.11.46.503.505.6 1.262.27 1.864.927.614 1.09.942 1.34 1.04.222.085.516-.013 1.487-.258zm-8.314 7.32c1 0 1.947-.327 2.74-.946 1.856-1.446 2.312-4.026 1.063-6.003-.105-.167-.092-.383.033-.533l.784-.943c.222-.268.204-.655-.04-.9-.172-.172-.432-.228-.66-.165.1.115.2.23.306.34.174.18.17.466-.01.64-.088.084-.202.128-.315.128-.118 0-.235-.047-.324-.14-.135-.14-.265-.288-.39-.436l-.51.424c-.14.118-.343.137-.505.05-.65-.354-1.39-.54-2.147-.54-1.225-.002-2.427.493-3.3 1.356l.637.64c.258.258.4.603.4.97 0 .365-.142.71-.4.97-.26.258-.603.4-.968.4-.366 0-.71-.142-.97-.4l-.637-.64-3.8 3.803.695.696c.176.177.176.464 0 .64-.088.09-.203.133-.32.133-.115 0-.23-.045-.318-.132l-.694-.695-.43.43c-.09.09-.14.21-.14.338 0 .128.05.25.14.34l.72.72c.17.17.464.183.65.028l.77-.654c.89-.757 2.03-1.174 3.204-1.174.872 0 1.738.228 2.505.66l.05.028c.67.37 1.425.566 2.182.566zM21.667 22c0 .184-.15.333-.334.333-.184 0-.333-.15-.333-.333 0-.184.15-.334.333-.334.184 0 .334.15.334.334zm1 0c0 .736-.597 1.333-1.334 1.333-.736 0-1.333-.597-1.333-1.333s.597-1.334 1.333-1.334c.737 0 1.334.598 1.334 1.334z" fill="#FF5A26"/></svg>